# Blender 4.0.2
# www.blender.org
mtllib reed.mtl
o Object_Bullrushes_2024-03-16_23-20-51
v -15.000000 113.000000 9.999991
v -17.000000 113.000000 9.999991
v -15.000000 66.000000 6.999995
v -13.000000 66.000000 6.999995
v -14.000000 113.000000 7.999991
v -12.000000 66.000000 5.999995
v -17.000000 113.000000 6.999991
v -14.000000 66.000000 4.999995
v -9.000000 0.000000 0.000000
v -10.000000 0.000000 3.000000
v -7.000000 0.000000 5.000000
v -6.000000 0.000000 2.000000
v -15.000000 116.000000 12.999991
v -21.000000 116.000000 9.999991
v -16.000000 112.000000 8.999991
v -12.000000 116.000000 6.999991
v -13.000000 141.000000 6.999990
v -15.000000 141.000000 13.999990
v -23.000000 141.000000 10.999990
v -18.000000 116.000000 3.999991
v -20.000000 141.000000 3.999989
v -17.000000 145.000000 9.999990
v -35.000000 29.999996 -42.000004
v -41.000000 29.999996 -39.000004
v -39.000000 19.999998 -34.000000
v -28.000000 40.999996 -42.000004
v -37.000000 40.999996 -39.000004
v -21.000000 43.999996 -34.000004
v -30.000000 43.999996 -30.000004
v -17.000000 29.999998 -22.000002
v -23.000000 29.999998 -20.000002
v -14.000000 -0.000001 -13.000000
v -17.000000 -0.000001 -11.000000
v -39.000000 52.000000 0.999996
v -39.000000 52.000000 -4.000004
v -33.000000 45.000000 -4.000003
v -46.000000 66.000000 5.999995
v -42.000000 66.000000 -4.000005
v -33.000000 73.000000 6.999994
v -30.000000 73.000000 -1.000005
v -24.000000 62.000000 5.999995
v -24.000000 62.000000 -0.000005
v -17.000000 0.000000 5.000000
v -20.000000 0.000000 2.000000
v -24.000000 31.000002 35.999996
v -29.000000 32.000004 32.999996
v -28.000000 24.000002 34.000000
v -21.000000 44.000004 40.999996
v -30.000000 44.000004 34.999996
v -17.000000 51.000004 28.999996
v -24.000000 51.000000 24.999996
v -15.000000 41.000000 19.999996
v -21.000000 41.000000 17.999996
v -14.000000 0.000001 15.000000
v -18.000000 0.000001 14.000000
vn -0.0000 -0.0637 0.9980
vn 0.8944 0.0095 0.4472
vn 0.7071 -0.0000 0.7071
vn 0.3158 0.0537 -0.9473
vn 0.4462 0.0665 -0.8924
vn -0.9980 -0.0637 -0.0000
vn -0.8944 -0.0095 -0.4472
vn -0.8939 -0.0339 -0.4470
vn -0.9474 -0.0526 -0.3158
vn -0.0000 -0.0605 0.9982
vn -0.5531 -0.0754 0.8297
vn 0.7065 0.0428 0.7065
vn 0.9466 0.0669 0.3155
vn 0.4452 0.0944 -0.8904
vn 0.5517 0.1045 -0.8275
vn -0.3522 -0.6163 0.7044
vn 0.7428 -0.5571 0.3714
vn 0.8939 0.0358 0.4469
vn 0.9615 -0.0110 0.2747
vn -0.4469 -0.0358 0.8939
vn -0.3504 -0.0654 0.9343
vn -0.8931 -0.0536 -0.4466
vn -0.6305 -0.7093 -0.3152
vn 0.3333 -0.6667 -0.6667
vn 0.4469 0.0358 -0.8939
vn 0.3939 0.0158 -0.9190
vn 0.2672 0.7348 -0.6235
vn 0.7672 0.6028 0.2192
vn -0.2794 0.6055 0.7452
vn -0.5658 0.7881 -0.2425
vn -0.9167 -0.0733 -0.3929
vn 0.3941 0.4729 0.7881
vn -0.3941 -0.4729 -0.7881
vn -0.4301 0.2737 -0.8603
vn 0.4301 -0.2737 0.8603
vn 0.3142 -0.1142 0.9425
vn -0.3142 0.1142 -0.9425
vn -0.0925 0.9562 -0.2776
vn 0.0925 -0.9562 0.2776
vn 0.1063 -0.9652 0.2391
vn -0.1063 0.9652 -0.2391
vn 0.3020 0.6687 0.6795
vn -0.3020 -0.6687 -0.6795
vn -0.2426 -0.6413 -0.7279
vn 0.2426 0.6413 0.7279
vn 0.3015 0.3015 0.9045
vn -0.3015 -0.3015 -0.9045
vn -0.5218 -0.3392 -0.7827
vn 0.5218 0.3392 0.7827
vn -0.7593 -0.6508 -0.0000
vn 0.7593 0.6508 -0.0000
vn 0.8944 0.4472 -0.0000
vn -0.8944 -0.4472 -0.0000
vn -0.9106 -0.1951 -0.3643
vn 0.9106 0.1951 0.3643
vn 0.4553 -0.8715 0.1821
vn -0.4553 0.8715 -0.1821
vn -0.4634 0.8689 -0.1738
vn 0.4634 -0.8689 0.1738
vn -0.7548 -0.5918 -0.2830
vn 0.7548 0.5918 0.2830
vn 0.8779 0.4789 -0.0000
vn -0.8779 -0.4789 -0.0000
vn -0.9937 -0.1122 -0.0000
vn 0.9937 0.1122 -0.0000
vn 0.7069 0.0228 -0.7069
vn -0.7069 -0.0228 0.7069
vn -0.5075 0.0441 0.8605
vn 0.5075 -0.0441 -0.8605
vn 0.5330 0.1938 -0.8237
vn -0.5330 -0.1938 0.8237
vn -0.5455 -0.1818 0.8182
vn 0.5455 0.1818 -0.8182
vn 0.2760 -0.8674 -0.4140
vn -0.2760 0.8674 0.4140
vn -0.2554 0.8573 0.4469
vn 0.2554 -0.8573 -0.4469
vn -0.3723 -0.6609 0.6516
vn 0.3723 0.6609 -0.6516
vn 0.2519 0.6046 -0.7557
vn -0.2519 -0.6046 0.7557
vn -0.3138 -0.1225 0.9415
vn 0.3138 0.1225 -0.9415
vn 0.2410 0.1117 -0.9641
vn -0.2410 -0.1117 0.9641
s 0
usemtl c0.079
f 1//1 2//1 3//1
usemtl c1.075
f 1//1 3//1 4//1
usemtl c2.075
f 1//2 4//2 5//2
usemtl c3.075
f 5//3 4//3 6//3
usemtl c4.074
f 5//4 6//4 7//4
usemtl c5.074
f 7//5 6//5 8//5
usemtl c6.074
f 7//6 8//6 2//6
usemtl c7.074
f 2//7 8//7 3//7
usemtl c8.073
f 3//8 8//8 9//8
usemtl c9.073
f 3//9 9//9 10//9
usemtl c10.073
f 3//10 10//10 4//10
usemtl c11.073
f 4//11 10//11 11//11
usemtl c12.072
f 4//12 11//12 6//12
usemtl c13.072
f 6//13 11//13 12//13
usemtl c14.072
f 6//14 12//14 8//14
usemtl c15.072
f 8//15 12//15 9//15
usemtl c16.071
f 13//16 14//16 15//16
usemtl c17.071
f 13//17 15//17 16//17
usemtl c18.071
f 13//18 16//18 17//18
usemtl c19.071
f 13//19 17//19 18//19
f 17//28 22//28 18//28
usemtl c20.071
f 13//20 18//20 14//20
usemtl c21.071
f 14//21 18//21 19//21
usemtl c22.070
f 14//22 19//22 20//22
usemtl c23.070
f 14//23 20//23 15//23
usemtl c24.070
f 15//24 20//24 16//24
usemtl c25.070
f 16//25 20//25 21//25
usemtl c26.070
f 16//26 21//26 17//26
usemtl c27.069
f 17//27 21//27 22//27
usemtl c28.069
f 18//29 22//29 19//29
usemtl c29.069
f 19//30 22//30 21//30
usemtl c30.069
f 19//31 21//31 20//31
usemtl c31.069
f 23//32 24//32 25//32
f 23//35 26//35 24//35
f 24//36 26//36 27//36
f 26//39 28//39 27//39
f 27//40 28//40 29//40
f 28//43 30//43 29//43
f 29//44 30//44 31//44
f 30//47 32//47 31//47
f 31//48 32//48 33//48
f 34//51 36//51 35//51
f 34//52 35//52 37//52
f 35//55 38//55 37//55
f 37//56 38//56 39//56
f 38//59 40//59 39//59
f 39//60 40//60 41//60
f 40//63 42//63 41//63
f 41//64 42//64 43//64
f 42//67 44//67 43//67
f 45//69 47//69 46//69
f 45//70 46//70 48//70
f 46//73 49//73 48//73
f 48//74 49//74 50//74
f 49//77 51//77 50//77
f 50//78 51//78 52//78
f 51//81 53//81 52//81
f 52//82 53//82 54//82
f 53//85 55//85 54//85
usemtl c32.069
f 23//33 25//33 24//33
f 23//34 24//34 26//34
f 24//37 27//37 26//37
f 26//38 27//38 28//38
f 27//41 29//41 28//41
f 28//42 29//42 30//42
f 29//45 31//45 30//45
f 30//46 31//46 32//46
f 31//49 33//49 32//49
f 34//50 35//50 36//50
f 34//53 37//53 35//53
f 35//54 37//54 38//54
f 37//57 39//57 38//57
f 38//58 39//58 40//58
f 39//61 41//61 40//61
f 40//62 41//62 42//62
f 41//65 43//65 42//65
f 42//66 43//66 44//66
f 45//68 46//68 47//68
f 45//71 48//71 46//71
f 46//72 48//72 49//72
f 48//75 50//75 49//75
f 49//76 50//76 51//76
f 50//79 52//79 51//79
f 51//80 52//80 53//80
f 52//83 54//83 53//83
f 53//84 54//84 55//84
o Object_Fern_2024-03-16_23-20-12
v -0.263563 8.811810 10.286128
v 3.736437 7.811809 6.286128
v -2.263563 -4.188191 4.286129
v -5.263563 -4.188191 7.286129
v -6.263563 -8.188191 3.286129
v -10.263563 -4.188191 6.286129
v -10.263563 7.811809 11.286128
v -5.263563 8.811810 10.286128
v -10.263563 14.811810 15.286127
v -6.263563 14.811810 15.286127
v -10.263563 17.811810 20.286127
v -6.263563 17.811810 21.286127
v -9.263563 23.811810 34.286125
v -15.263563 7.811809 9.286128
v -11.263563 -4.188192 1.286129
v -17.263563 7.811809 4.286127
v -19.263563 13.811810 10.286127
v -20.263563 13.811808 6.286127
v -24.263563 17.811810 8.286127
v -23.263563 17.811810 13.286127
v -34.263565 27.811810 16.286125
v -11.263563 7.811808 -5.713873
v -15.263563 7.811808 -2.713873
v -7.263563 -4.188192 -1.713871
v -3.263563 -4.188192 0.286129
v -2.263563 7.811808 -5.713873
v -8.263563 7.811808 -6.713873
v -7.263563 13.811808 -10.713873
v -2.263563 13.811808 -10.713873
v -2.263563 16.811808 -16.713871
v -7.263563 16.811808 -16.713871
v -4.263563 22.811806 -34.713875
v 5.736437 7.811808 1.286127
v 2.736437 7.811808 -2.713873
v 2.736437 13.811810 13.286127
v 6.736437 13.811810 8.286127
v 8.736437 13.811808 -0.713873
v 5.736437 13.811808 -4.713873
v -14.263563 13.811808 -8.713873
v -17.263563 13.811808 -4.713873
v -18.263563 16.811808 -13.713871
v -21.263563 16.811808 -8.713873
v -33.263565 22.811806 -22.713875
v 26.736437 24.811806 -13.713875
v 12.736437 16.811808 -8.713873
v 14.736437 16.811808 -3.713873
v 22.736437 27.811810 21.286127
v 11.736437 16.811810 11.286127
v 8.736437 16.811810 16.286127
v 7.736437 11.811810 9.286127
v 8.736437 11.811808 1.286127
v 3.736437 5.811808 1.286127
v 2.736437 5.811809 9.286128
v -0.263563 -6.188192 1.286129
v -1.263563 -6.188191 8.286129
v -6.263563 -10.188191 3.286129
v -9.263563 -6.188191 12.286129
v -7.263563 5.811810 15.286128
v -0.263563 5.811809 11.286128
v -4.263563 11.811810 20.286127
v 1.736437 11.811810 18.286127
v -2.263563 14.811810 27.286127
v 2.736437 14.811810 25.286127
v 5.736437 11.811811 43.286125
v 7.736437 11.811808 -7.713873
v 1.736437 11.811808 -12.713871
v -0.263563 5.811808 -9.713873
v 4.736437 5.811808 -4.713873
v -4.263563 -6.188192 -3.713871
v -13.263563 -6.188192 -2.713871
v -16.263563 -6.188191 5.286129
v -12.263563 5.811810 15.286128
v -18.263563 5.811809 8.286128
v -15.263563 11.811810 18.286127
v -20.263563 11.811810 12.286127
v -25.263563 14.811810 19.286127
v -21.263563 14.811810 22.286127
v -36.263565 16.811811 38.286125
v -6.263563 5.811808 -7.713873
v -8.263563 11.811808 -13.713871
v -16.263563 11.811808 -11.713871
v -14.263563 5.811808 -6.713873
v -20.263563 5.811809 3.286127
v -17.263563 5.811808 -2.713873
v -21.263563 11.811808 -4.713873
v -23.263563 11.811808 2.286127
v -27.263563 14.811808 -4.713873
v -29.263563 14.811808 0.286127
v -46.263565 14.811808 -7.713873
v 15.736437 14.811810 8.286127
v 15.736437 14.811808 2.286127
v 34.736435 17.811808 5.286127
v 11.736437 14.811808 -14.713871
v 6.736437 14.811806 -18.713871
v 20.736437 22.811806 -31.713875
v -11.263563 14.811806 -19.713871
v -17.263563 14.811806 -17.713871
v -20.263563 13.811806 -36.713871
vn -0.5911 0.4112 -0.6939
vn -0.6484 0.3990 -0.6484
vn -0.5298 0.6623 -0.5298
vn 0.1435 0.6816 -0.7175
vn 0.1815 0.3782 -0.9077
vn -0.2332 0.2187 -0.9475
vn -0.2633 0.4786 -0.8376
vn -0.0000 0.6402 -0.7682
vn -0.0000 0.8575 -0.5145
vn 0.1111 0.8889 -0.4444
vn 0.0995 0.9120 -0.3980
vn 0.8917 0.4161 -0.1783
vn 0.8111 0.4867 -0.3244
vn 0.7675 0.5628 -0.3070
vn 0.8443 0.4925 -0.2111
vn 0.6554 0.7373 -0.1638
vn 0.6506 0.7482 -0.1301
vn 0.6474 0.7510 -0.1295
vn 0.5437 0.4229 0.7249
vn 0.3937 0.7546 0.5249
vn -0.3152 0.7093 0.6305
vn -0.4025 0.4360 0.8049
vn -0.1528 0.3692 0.9167
vn -0.1356 0.5651 0.8138
vn -0.0000 0.6402 0.7682
vn -0.0000 0.8944 0.4472
vn -0.0000 0.9487 0.3162
vn -0.7010 0.4819 0.5257
vn -0.7920 0.5775 0.1980
vn -0.7177 0.6728 0.1794
vn -0.6700 0.5137 -0.5360
vn -0.4553 0.6428 -0.6160
vn -0.6860 0.5145 0.5145
vn 0.4915 0.5735 0.6554
vn 0.7249 0.4229 0.5437
vn 0.3484 0.9002 0.2613
vn 0.4113 0.8775 0.2468
vn 0.2782 0.9459 0.1669
vn -0.4402 0.8805 0.1761
vn -0.3266 0.9361 0.1306
vn -0.3310 0.9104 0.2483
vn -0.5165 0.7982 -0.3099
vn -0.3923 0.8892 -0.2354
vn -0.3248 0.9094 -0.2598
vn -0.7647 0.6373 -0.0956
vn -0.9421 0.3140 -0.1178
vn -0.9368 0.3234 -0.1338
vn -0.5715 0.8165 -0.0816
vn -0.2290 0.8589 -0.4581
vn -0.4286 0.2857 -0.8571
vn -0.4804 0.2502 -0.8406
vn -0.3558 0.6969 -0.6227
vn -0.2012 0.7714 -0.6037
vn -0.1206 0.9244 -0.3617
vn -0.1486 0.9164 -0.3715
vn 0.0616 0.9861 0.1541
vn -0.5496 0.5129 0.6595
vn -0.5774 0.5774 0.5774
vn -0.6092 0.5077 0.6092
vn -0.6584 0.5377 0.5267
vn -0.4364 0.8292 0.3491
vn 0.0564 0.8598 0.5074
vn 0.3926 0.9079 0.1472
vn 0.3015 0.9045 -0.3015
vn 0.6667 0.3333 -0.6667
vn 0.7294 0.2779 -0.6252
vn 0.6205 0.5762 -0.5319
vn 0.6344 0.5639 -0.5287
vn 0.2605 0.9407 -0.2171
vn 0.2422 0.9149 -0.3229
vn 0.0548 0.9958 -0.0731
vn 0.1672 0.7245 0.6687
vn 0.0937 0.6556 0.7493
vn 0.1174 0.3228 0.9391
vn 0.1042 0.3301 0.9382
vn 0.7171 0.5976 0.3586
vn 0.8508 0.4659 0.2431
vn 0.4436 0.8872 0.1267
vn 0.3985 0.9032 0.1594
vn -0.0000 1.0000 -0.0000
vn 0.8381 0.3492 0.4191
vn 0.8938 0.2979 0.3352
vn -0.3556 0.9336 -0.0445
vn -0.3939 0.9191 -0.0000
vn -0.1560 0.9878 -0.0000
vn -0.2263 0.9354 0.2716
vn -0.2240 0.9335 0.2800
vn -0.2435 0.9209 0.3044
vn 0.1010 0.9091 0.4041
vn 0.1413 0.8947 0.4238
vn -0.0166 0.9986 -0.0499
s 0
usemtl c0.080
f 56//86 57//86 58//86
f 134//157 135//157 136//157
usemtl c1.076
f 56//87 58//87 59//87
usemtl c2.076
f 59//88 58//88 60//88
usemtl c3.076
f 59//89 60//89 61//89
f 110//134 111//134 112//134
usemtl c4.075
f 59//90 61//90 62//90
f 139//166 138//166 126//166
usemtl c5.075
f 59//91 62//91 63//91
f 138//161 139//161 140//161
usemtl c6.075
f 63//92 62//92 64//92
usemtl c7.075
f 63//93 64//93 65//93
usemtl c8.074
f 65//94 64//94 66//94
usemtl c9.074
f 65//95 66//95 67//95
usemtl c10.074
f 67//96 66//96 68//96
usemtl c11.074
f 69//97 61//97 70//97
usemtl c12.073
f 69//98 70//98 71//98
usemtl c13.073
f 69//99 71//99 72//99
usemtl c14.073
f 72//100 71//100 73//100
usemtl c15.073
f 72//101 73//101 74//101
usemtl c16.072
f 72//102 74//102 75//102
usemtl c17.072
f 75//103 74//103 76//103
usemtl c18.072
f 77//104 78//104 70//104
f 110//133 109//133 111//133
usemtl c19.072
f 77//104 70//104 79//104
f 105//130 106//130 107//130
usemtl c20.072
f 79//105 70//105 60//105
usemtl c21.072
f 79//106 60//106 80//106
usemtl c22.071
f 79//107 80//107 81//107
usemtl c23.071
f 79//108 81//108 82//108
usemtl c24.071
f 82//109 81//109 83//109
usemtl c25.071
f 83//110 81//110 84//110
usemtl c26.071
f 83//111 84//111 85//111
usemtl c27.070
f 83//111 85//111 86//111
usemtl c28.070
f 86//112 85//112 87//112
usemtl c29.070
f 88//113 89//113 80//113
usemtl c30.070
f 88//114 80//114 58//114
usemtl c31.070
f 58//115 80//115 60//115
usemtl c32.070
f 60//102 70//102 61//102
usemtl c33.069
f 90//116 91//116 57//116
f 78//119 77//119 94//119
usemtl c34.069
f 90//117 57//117 56//117
f 78//120 94//120 95//120
f 143//165 142//165 144//165
usemtl c35.068
f 92//118 93//118 89//118
usemtl c36.068
f 92//118 89//118 88//118
usemtl c37.067
f 95//121 94//121 96//121
usemtl c38.067
f 95//122 96//122 97//122
usemtl c39.067
f 97//123 96//123 98//123
usemtl c40.067
f 99//124 100//124 101//124
usemtl c41.067
f 101//125 100//125 93//125
usemtl c42.066
f 101//126 93//126 92//126
usemtl c43.066
f 102//127 103//127 104//127
usemtl c44.066
f 104//128 103//128 91//128
usemtl c45.066
f 104//129 91//129 90//129
usemtl c46.066
f 105//130 107//130 108//130
usemtl c47.066
f 108//131 107//131 109//131
usemtl c48.066
f 108//132 109//132 110//132
f 134//159 137//159 125//159
f 134//160 125//160 124//160
usemtl c49.064
f 110//135 112//135 113//135
usemtl c50.064
f 110//136 113//136 114//136
usemtl c51.063
f 114//137 113//137 115//137
usemtl c52.063
f 114//138 115//138 116//138
usemtl c53.063
f 116//139 115//139 117//139
usemtl c54.063
f 116//140 117//140 118//140
usemtl c55.063
f 118//141 117//141 119//141
usemtl c56.063
f 120//142 121//142 122//142
usemtl c57.063
f 120//143 122//143 123//143
usemtl c58.063
f 123//144 122//144 124//144
usemtl c59.063
f 123//145 124//145 109//145
usemtl c60.063
f 109//146 124//146 111//146
f 134//158 136//158 137//158
usemtl c61.063
f 111//147 124//147 125//147
usemtl c62.061
f 111//148 125//148 126//148
usemtl c63.061
f 111//149 126//149 112//149
usemtl c64.061
f 112//150 126//150 127//150
usemtl c65.061
f 127//151 126//151 128//151
usemtl c66.061
f 127//152 128//152 129//152
usemtl c67.061
f 129//153 128//153 130//153
usemtl c68.061
f 129//154 130//154 131//154
usemtl c69.061
f 129//155 131//155 132//155
usemtl c70.061
f 132//156 131//156 133//156
usemtl c71.061
f 138//162 140//162 141//162
usemtl c72.060
f 141//163 140//163 142//163
usemtl c73.060
f 141//164 142//164 143//164
usemtl c74.058
f 139//167 126//167 125//167
usemtl c75.058
f 106//168 105//168 145//168
usemtl c76.058
f 106//169 145//169 146//169
usemtl c77.057
f 146//170 145//170 147//170
usemtl c78.057
f 121//171 120//171 148//171
usemtl c79.057
f 121//172 148//172 149//172
usemtl c80.057
f 149//173 148//173 150//173
usemtl c81.057
f 136//174 135//174 151//174
usemtl c82.057
f 136//175 151//175 152//175
usemtl c83.055
f 152//176 151//176 153//176
